<mxfile host="app.diagrams.net" modified="2023-04-04T11:02:54.991Z" agent="Mozilla/5.0 (Windows NT 10.0; Win64; x64) AppleWebKit/537.36 (KHTML, like Gecko) Chrome/111.0.0.0 Safari/537.36" etag="59ZUtFNMpTC2kcoxzlcl" version="21.1.2" type="device">
  <diagram id="C5RBs43oDa-KdzZeNtuy" name="Page-1">
    <mxGraphModel dx="1050" dy="587" grid="1" gridSize="10" guides="1" tooltips="1" connect="1" arrows="1" fold="1" page="1" pageScale="1" pageWidth="827" pageHeight="1169" math="0" shadow="0">
      <root>
        <mxCell id="WIyWlLk6GJQsqaUBKTNV-0" />
        <mxCell id="WIyWlLk6GJQsqaUBKTNV-1" parent="WIyWlLk6GJQsqaUBKTNV-0" />
        <mxCell id="yk_ahU3Q7SBZZ4JdvM2L-0" value="&lt;u&gt;WaterValidator&lt;/u&gt;" style="swimlane;fontStyle=1;align=center;verticalAlign=top;childLayout=stackLayout;horizontal=1;startSize=26;horizontalStack=0;resizeParent=1;resizeParentMax=0;resizeLast=0;collapsible=1;marginBottom=0;whiteSpace=wrap;html=1;" parent="WIyWlLk6GJQsqaUBKTNV-1" vertex="1">
          <mxGeometry x="540" y="560" width="240" height="60" as="geometry" />
        </mxCell>
        <mxCell id="yk_ahU3Q7SBZZ4JdvM2L-3" value="+ &lt;u&gt;Validate(water:&amp;nbsp;&lt;/u&gt;&lt;u style=&quot;border-color: var(--border-color);&quot;&gt;double&lt;/u&gt;&lt;u&gt;):&amp;nbsp;ValidationResult&lt;/u&gt;" style="text;strokeColor=none;fillColor=none;align=left;verticalAlign=top;spacingLeft=4;spacingRight=4;overflow=hidden;rotatable=0;points=[[0,0.5],[1,0.5]];portConstraint=eastwest;whiteSpace=wrap;html=1;" parent="yk_ahU3Q7SBZZ4JdvM2L-0" vertex="1">
          <mxGeometry y="26" width="240" height="34" as="geometry" />
        </mxCell>
        <mxCell id="yk_ahU3Q7SBZZ4JdvM2L-4" value="&lt;p style=&quot;margin:0px;margin-top:4px;text-align:center;&quot;&gt;&lt;i&gt;&amp;lt;&amp;lt;Interface&amp;gt;&amp;gt;&lt;/i&gt;&lt;br&gt;&lt;b&gt;IMessageLogger&lt;/b&gt;&lt;/p&gt;&lt;hr size=&quot;1&quot;&gt;&lt;p style=&quot;margin:0px;margin-left:4px;&quot;&gt;+&amp;nbsp;Log(message:&lt;/p&gt;string, mark:&amp;nbsp;string?&amp;nbsp;&lt;span style=&quot;background-color: initial;&quot;&gt;= null): void&lt;/span&gt;" style="verticalAlign=top;align=left;overflow=fill;fontSize=12;fontFamily=Helvetica;html=1;whiteSpace=wrap;" parent="WIyWlLk6GJQsqaUBKTNV-1" vertex="1">
          <mxGeometry x="584.15" y="210" width="229.56" height="90" as="geometry" />
        </mxCell>
        <mxCell id="yk_ahU3Q7SBZZ4JdvM2L-5" value="Simulator" style="swimlane;fontStyle=1;align=center;verticalAlign=top;childLayout=stackLayout;horizontal=1;startSize=20;horizontalStack=0;resizeParent=1;resizeParentMax=0;resizeLast=0;collapsible=1;marginBottom=0;whiteSpace=wrap;html=1;" parent="WIyWlLk6GJQsqaUBKTNV-1" vertex="1">
          <mxGeometry x="230" y="80" width="300" height="180" as="geometry" />
        </mxCell>
        <mxCell id="yk_ahU3Q7SBZZ4JdvM2L-6" value="-&amp;nbsp;_consumers: List&amp;lt;Consumer&amp;gt;&lt;br&gt;- _waterTower: WaterTower&lt;br&gt;- _messageLogger: IMessageLogger&amp;nbsp;" style="text;strokeColor=none;fillColor=none;align=left;verticalAlign=top;spacingLeft=4;spacingRight=4;overflow=hidden;rotatable=0;points=[[0,0.5],[1,0.5]];portConstraint=eastwest;whiteSpace=wrap;html=1;" parent="yk_ahU3Q7SBZZ4JdvM2L-5" vertex="1">
          <mxGeometry y="20" width="300" height="54" as="geometry" />
        </mxCell>
        <mxCell id="yk_ahU3Q7SBZZ4JdvM2L-7" value="" style="line;strokeWidth=1;fillColor=none;align=left;verticalAlign=middle;spacingTop=-1;spacingLeft=3;spacingRight=3;rotatable=0;labelPosition=right;points=[];portConstraint=eastwest;strokeColor=inherit;" parent="yk_ahU3Q7SBZZ4JdvM2L-5" vertex="1">
          <mxGeometry y="74" width="300" height="8" as="geometry" />
        </mxCell>
        <mxCell id="yk_ahU3Q7SBZZ4JdvM2L-8" value="+&amp;nbsp;Simulator(consumers: List&amp;lt;Consumer&amp;gt;, waterTower: WaterTower, messageLogger: IMessageLogger)&lt;br&gt;+ Consume(): void&lt;br&gt;+ ConsumeWater(id: Guid, consumingWater: double)&lt;br&gt;+&amp;nbsp;ToString(): string" style="text;strokeColor=none;fillColor=none;align=left;verticalAlign=top;spacingLeft=4;spacingRight=4;overflow=hidden;rotatable=0;points=[[0,0.5],[1,0.5]];portConstraint=eastwest;whiteSpace=wrap;html=1;" parent="yk_ahU3Q7SBZZ4JdvM2L-5" vertex="1">
          <mxGeometry y="82" width="300" height="98" as="geometry" />
        </mxCell>
        <mxCell id="yk_ahU3Q7SBZZ4JdvM2L-9" value="WaterTower" style="swimlane;fontStyle=1;align=center;verticalAlign=top;childLayout=stackLayout;horizontal=1;startSize=26;horizontalStack=0;resizeParent=1;resizeParentMax=0;resizeLast=0;collapsible=1;marginBottom=0;whiteSpace=wrap;html=1;" parent="WIyWlLk6GJQsqaUBKTNV-1" vertex="1">
          <mxGeometry x="170" y="540" width="260" height="190" as="geometry" />
        </mxCell>
        <mxCell id="yk_ahU3Q7SBZZ4JdvM2L-10" value="-&amp;nbsp;_maxWaterLevel: double {readOnly}&lt;br&gt;-&amp;nbsp;_currentLevel: double&lt;br&gt;-&amp;nbsp;_pump: Pump&lt;br&gt;+&amp;lt;&amp;lt;&lt;span style=&quot;border: 0px; color: var(--darkreader-text--highlight-keyword); font-family: inherit; font-style: inherit; font-variant: inherit; font-weight: inherit; background-color: transparent; margin: 0px; padding: 0px; font-stretch: inherit; line-height: inherit; font-optical-sizing: inherit; font-kerning: inherit; font-feature-settings: inherit; font-variation-settings: inherit; font-size: 13px; vertical-align: baseline; box-sizing: inherit;&quot; class=&quot;hljs-keyword&quot;&gt;get&lt;/span&gt;&lt;span style=&quot;border-color: var(--border-color); color: var(--darkreader-text--highlight-color); font-family: inherit; font-size: var(--_pr-code-fs); font-style: inherit; font-variant-ligatures: inherit; font-variant-caps: inherit; font-weight: inherit; background-color: transparent;&quot;&gt;&amp;gt;&amp;gt;&amp;nbsp;&lt;/span&gt;CurrentLevel: double" style="text;strokeColor=none;fillColor=none;align=left;verticalAlign=top;spacingLeft=4;spacingRight=4;overflow=hidden;rotatable=0;points=[[0,0.5],[1,0.5]];portConstraint=eastwest;whiteSpace=wrap;html=1;" parent="yk_ahU3Q7SBZZ4JdvM2L-9" vertex="1">
          <mxGeometry y="26" width="260" height="74" as="geometry" />
        </mxCell>
        <mxCell id="yk_ahU3Q7SBZZ4JdvM2L-11" value="" style="line;strokeWidth=1;fillColor=none;align=left;verticalAlign=middle;spacingTop=-1;spacingLeft=3;spacingRight=3;rotatable=0;labelPosition=right;points=[];portConstraint=eastwest;strokeColor=inherit;" parent="yk_ahU3Q7SBZZ4JdvM2L-9" vertex="1">
          <mxGeometry y="100" width="260" height="8" as="geometry" />
        </mxCell>
        <mxCell id="yk_ahU3Q7SBZZ4JdvM2L-12" value="+&amp;nbsp;WaterTower(maxWaterLevel: double, pump: Pump)&lt;br&gt;+ GiveWater(consumingWater: double): double&lt;br&gt;+&amp;nbsp;TurnOnPump(): void&lt;br&gt;+&amp;nbsp;ToString(): string" style="text;strokeColor=none;fillColor=none;align=left;verticalAlign=top;spacingLeft=4;spacingRight=4;overflow=hidden;rotatable=0;points=[[0,0.5],[1,0.5]];portConstraint=eastwest;whiteSpace=wrap;html=1;" parent="yk_ahU3Q7SBZZ4JdvM2L-9" vertex="1">
          <mxGeometry y="108" width="260" height="82" as="geometry" />
        </mxCell>
        <mxCell id="yk_ahU3Q7SBZZ4JdvM2L-13" value="Pump" style="swimlane;fontStyle=1;align=center;verticalAlign=top;childLayout=stackLayout;horizontal=1;startSize=26;horizontalStack=0;resizeParent=1;resizeParentMax=0;resizeLast=0;collapsible=1;marginBottom=0;whiteSpace=wrap;html=1;" parent="WIyWlLk6GJQsqaUBKTNV-1" vertex="1">
          <mxGeometry x="205" y="800" width="190" height="120" as="geometry" />
        </mxCell>
        <mxCell id="yk_ahU3Q7SBZZ4JdvM2L-14" value="-&amp;nbsp;_fillingPower: double {readOnly}" style="text;strokeColor=none;fillColor=none;align=left;verticalAlign=top;spacingLeft=4;spacingRight=4;overflow=hidden;rotatable=0;points=[[0,0.5],[1,0.5]];portConstraint=eastwest;whiteSpace=wrap;html=1;" parent="yk_ahU3Q7SBZZ4JdvM2L-13" vertex="1">
          <mxGeometry y="26" width="190" height="26" as="geometry" />
        </mxCell>
        <mxCell id="yk_ahU3Q7SBZZ4JdvM2L-15" value="" style="line;strokeWidth=1;fillColor=none;align=left;verticalAlign=middle;spacingTop=-1;spacingLeft=3;spacingRight=3;rotatable=0;labelPosition=right;points=[];portConstraint=eastwest;strokeColor=inherit;" parent="yk_ahU3Q7SBZZ4JdvM2L-13" vertex="1">
          <mxGeometry y="52" width="190" height="8" as="geometry" />
        </mxCell>
        <mxCell id="yk_ahU3Q7SBZZ4JdvM2L-16" value="+&amp;nbsp;Pump(fillingPower: double)&lt;br&gt;+&amp;nbsp;FillUp(): double&lt;br&gt;+&amp;nbsp;ToString(): string" style="text;strokeColor=none;fillColor=none;align=left;verticalAlign=top;spacingLeft=4;spacingRight=4;overflow=hidden;rotatable=0;points=[[0,0.5],[1,0.5]];portConstraint=eastwest;whiteSpace=wrap;html=1;" parent="yk_ahU3Q7SBZZ4JdvM2L-13" vertex="1">
          <mxGeometry y="60" width="190" height="60" as="geometry" />
        </mxCell>
        <mxCell id="yk_ahU3Q7SBZZ4JdvM2L-17" value="Consumer" style="swimlane;fontStyle=1;align=center;verticalAlign=top;childLayout=stackLayout;horizontal=1;startSize=26;horizontalStack=0;resizeParent=1;resizeParentMax=0;resizeLast=0;collapsible=1;marginBottom=0;whiteSpace=wrap;html=1;" parent="WIyWlLk6GJQsqaUBKTNV-1" vertex="1">
          <mxGeometry x="360" y="340" width="240" height="156" as="geometry" />
        </mxCell>
        <mxCell id="yk_ahU3Q7SBZZ4JdvM2L-18" value="-&amp;nbsp;_consumingWater: double&lt;br&gt;-&amp;nbsp;_id: Guid {readOnly}&lt;br&gt;+&amp;lt;&amp;lt;&lt;span style=&quot;background-color: transparent; font-family: inherit; font-style: inherit; font-variant: inherit; font-weight: inherit; color: var(--darkreader-text--highlight-keyword); margin: 0px; padding: 0px; border: 0px; font-stretch: inherit; line-height: inherit; font-optical-sizing: inherit; font-kerning: inherit; font-feature-settings: inherit; font-variation-settings: inherit; font-size: 13px; vertical-align: baseline; box-sizing: inherit;&quot; class=&quot;hljs-keyword&quot;&gt;get&lt;/span&gt;&lt;span style=&quot;background-color: transparent; font-family: inherit; font-size: var(--_pr-code-fs); font-style: inherit; font-variant-ligatures: inherit; font-variant-caps: inherit; font-weight: inherit; color: var(--darkreader-text--highlight-color);&quot;&gt;&amp;gt;&amp;gt;&amp;nbsp;&lt;/span&gt;Id: Guid&lt;br&gt;&lt;span style=&quot;background-color: transparent; font-family: inherit; font-size: var(--_pr-code-fs); font-style: inherit; font-variant-ligatures: inherit; font-variant-caps: inherit; font-weight: inherit; color: var(--darkreader-text--highlight-color);&quot;&gt;+&amp;lt;&amp;lt;&lt;/span&gt;&lt;span style=&quot;background-color: transparent; font-family: inherit; font-style: inherit; font-variant: inherit; font-weight: inherit; color: var(--darkreader-text--highlight-keyword); margin: 0px; padding: 0px; border: 0px; font-stretch: inherit; line-height: inherit; font-optical-sizing: inherit; font-kerning: inherit; font-feature-settings: inherit; font-variation-settings: inherit; font-size: 13px; vertical-align: baseline; box-sizing: inherit;&quot; class=&quot;hljs-keyword&quot;&gt;get&lt;/span&gt;&lt;span style=&quot;background-color: transparent; font-family: inherit; font-size: var(--_pr-code-fs); font-style: inherit; font-variant-ligatures: inherit; font-variant-caps: inherit; font-weight: inherit; color: var(--darkreader-text--highlight-color);&quot;&gt;, &lt;/span&gt;&lt;span style=&quot;background-color: transparent; font-family: inherit; font-style: inherit; font-variant: inherit; font-weight: inherit; color: var(--darkreader-text--highlight-keyword); margin: 0px; padding: 0px; border: 0px; font-stretch: inherit; line-height: inherit; font-optical-sizing: inherit; font-kerning: inherit; font-feature-settings: inherit; font-variation-settings: inherit; font-size: 13px; vertical-align: baseline; box-sizing: inherit;&quot; class=&quot;hljs-keyword&quot;&gt;set&lt;/span&gt;&lt;span style=&quot;background-color: transparent; font-family: inherit; font-size: var(--_pr-code-fs); font-style: inherit; font-variant-ligatures: inherit; font-variant-caps: inherit; font-weight: inherit; color: var(--darkreader-text--highlight-color);&quot;&gt;&amp;gt;&amp;gt;&amp;nbsp;&lt;/span&gt;&lt;span style=&quot;background-color: initial;&quot;&gt;ConsumingWater: double&lt;br&gt;&lt;/span&gt;" style="text;strokeColor=none;fillColor=none;align=left;verticalAlign=top;spacingLeft=4;spacingRight=4;overflow=hidden;rotatable=0;points=[[0,0.5],[1,0.5]];portConstraint=eastwest;whiteSpace=wrap;html=1;" parent="yk_ahU3Q7SBZZ4JdvM2L-17" vertex="1">
          <mxGeometry y="26" width="240" height="74" as="geometry" />
        </mxCell>
        <mxCell id="yk_ahU3Q7SBZZ4JdvM2L-19" value="" style="line;strokeWidth=1;fillColor=none;align=left;verticalAlign=middle;spacingTop=-1;spacingLeft=3;spacingRight=3;rotatable=0;labelPosition=right;points=[];portConstraint=eastwest;strokeColor=inherit;" parent="yk_ahU3Q7SBZZ4JdvM2L-17" vertex="1">
          <mxGeometry y="100" width="240" height="8" as="geometry" />
        </mxCell>
        <mxCell id="yk_ahU3Q7SBZZ4JdvM2L-20" value="+&amp;nbsp;Consumer(consumingWater:&amp;nbsp;double)&lt;br&gt;+ ToString(): string&amp;nbsp;" style="text;strokeColor=none;fillColor=none;align=left;verticalAlign=top;spacingLeft=4;spacingRight=4;overflow=hidden;rotatable=0;points=[[0,0.5],[1,0.5]];portConstraint=eastwest;whiteSpace=wrap;html=1;" parent="yk_ahU3Q7SBZZ4JdvM2L-17" vertex="1">
          <mxGeometry y="108" width="240" height="48" as="geometry" />
        </mxCell>
        <mxCell id="yk_ahU3Q7SBZZ4JdvM2L-21" value="ValidationResult" style="swimlane;fontStyle=1;align=center;verticalAlign=top;childLayout=stackLayout;horizontal=1;startSize=26;horizontalStack=0;resizeParent=1;resizeParentMax=0;resizeLast=0;collapsible=1;marginBottom=0;whiteSpace=wrap;html=1;" parent="WIyWlLk6GJQsqaUBKTNV-1" vertex="1">
          <mxGeometry x="505" y="660" width="310" height="150" as="geometry" />
        </mxCell>
        <mxCell id="yk_ahU3Q7SBZZ4JdvM2L-22" value="+&amp;lt;&amp;lt;get, init&amp;gt;&amp;gt; Description: string?&lt;br&gt;+&amp;lt;&amp;lt;get, init&amp;gt;&amp;gt; Success: bool" style="text;strokeColor=none;fillColor=none;align=left;verticalAlign=top;spacingLeft=4;spacingRight=4;overflow=hidden;rotatable=0;points=[[0,0.5],[1,0.5]];portConstraint=eastwest;whiteSpace=wrap;html=1;" parent="yk_ahU3Q7SBZZ4JdvM2L-21" vertex="1">
          <mxGeometry y="26" width="310" height="34" as="geometry" />
        </mxCell>
        <mxCell id="yk_ahU3Q7SBZZ4JdvM2L-23" value="" style="line;strokeWidth=1;fillColor=none;align=left;verticalAlign=middle;spacingTop=-1;spacingLeft=3;spacingRight=3;rotatable=0;labelPosition=right;points=[];portConstraint=eastwest;strokeColor=inherit;" parent="yk_ahU3Q7SBZZ4JdvM2L-21" vertex="1">
          <mxGeometry y="60" width="310" height="8" as="geometry" />
        </mxCell>
        <mxCell id="yk_ahU3Q7SBZZ4JdvM2L-24" value="-&amp;nbsp;ValidationResult(success: bool, description: string?)&lt;br&gt;+&amp;nbsp;&lt;u&gt;CreateSuccessValidationResult(description:&amp;nbsp;&lt;/u&gt;&lt;u style=&quot;border-color: var(--border-color);&quot;&gt;string?&amp;nbsp;&lt;/u&gt;&lt;u&gt;= null): ValidationResult&lt;/u&gt;&lt;br&gt;+&lt;u&gt;CreateNotSuccessValidationResult(description:&amp;nbsp;&lt;/u&gt;&lt;u style=&quot;border-color: var(--border-color);&quot;&gt;string&lt;/u&gt;&lt;u&gt;): ValidationResult&lt;br&gt;&lt;/u&gt;" style="text;strokeColor=none;fillColor=none;align=left;verticalAlign=top;spacingLeft=4;spacingRight=4;overflow=hidden;rotatable=0;points=[[0,0.5],[1,0.5]];portConstraint=eastwest;whiteSpace=wrap;html=1;" parent="yk_ahU3Q7SBZZ4JdvM2L-21" vertex="1">
          <mxGeometry y="68" width="310" height="82" as="geometry" />
        </mxCell>
        <mxCell id="yk_ahU3Q7SBZZ4JdvM2L-25" value="ConsoleMessageLogger" style="swimlane;fontStyle=1;align=center;verticalAlign=top;childLayout=stackLayout;horizontal=1;startSize=26;horizontalStack=0;resizeParent=1;resizeParentMax=0;resizeLast=0;collapsible=1;marginBottom=0;whiteSpace=wrap;html=1;" parent="WIyWlLk6GJQsqaUBKTNV-1" vertex="1">
          <mxGeometry x="620" y="380" width="157.87" height="60" as="geometry" />
        </mxCell>
        <mxCell id="yk_ahU3Q7SBZZ4JdvM2L-34" value="" style="endArrow=open;endFill=1;endSize=12;html=1;rounded=0;entryX=0.5;entryY=0;entryDx=0;entryDy=0;exitX=0.5;exitY=1.023;exitDx=0;exitDy=0;exitPerimeter=0;" parent="WIyWlLk6GJQsqaUBKTNV-1" source="yk_ahU3Q7SBZZ4JdvM2L-3" target="yk_ahU3Q7SBZZ4JdvM2L-21" edge="1">
          <mxGeometry width="160" relative="1" as="geometry">
            <mxPoint x="450" y="760" as="sourcePoint" />
            <mxPoint x="490" y="300" as="targetPoint" />
          </mxGeometry>
        </mxCell>
        <mxCell id="yk_ahU3Q7SBZZ4JdvM2L-48" value="" style="endArrow=diamondThin;endFill=1;endSize=24;html=1;rounded=0;exitX=0.5;exitY=0;exitDx=0;exitDy=0;" parent="WIyWlLk6GJQsqaUBKTNV-1" source="yk_ahU3Q7SBZZ4JdvM2L-13" target="yk_ahU3Q7SBZZ4JdvM2L-12" edge="1">
          <mxGeometry width="160" relative="1" as="geometry">
            <mxPoint x="330" y="500" as="sourcePoint" />
            <mxPoint x="490" y="500" as="targetPoint" />
          </mxGeometry>
        </mxCell>
        <mxCell id="yk_ahU3Q7SBZZ4JdvM2L-52" value="&lt;p style=&quot;margin:0px;margin-top:4px;text-align:center;&quot;&gt;&lt;i&gt;&amp;lt;&amp;lt;Interface&amp;gt;&amp;gt;&lt;/i&gt;&lt;br&gt;&lt;b&gt;ICloneable&lt;/b&gt;&lt;/p&gt;&lt;hr size=&quot;1&quot;&gt;&lt;p style=&quot;margin:0px;margin-left:4px;&quot;&gt;+ Clone(): object&lt;br&gt;&lt;/p&gt;" style="verticalAlign=top;align=left;overflow=fill;fontSize=12;fontFamily=Helvetica;html=1;whiteSpace=wrap;" parent="WIyWlLk6GJQsqaUBKTNV-1" vertex="1">
          <mxGeometry x="10" y="360" width="190" height="70" as="geometry" />
        </mxCell>
        <mxCell id="yk_ahU3Q7SBZZ4JdvM2L-53" value="" style="endArrow=block;dashed=1;endFill=0;endSize=12;html=1;rounded=0;entryX=0.5;entryY=1;entryDx=0;entryDy=0;exitX=0;exitY=0.5;exitDx=0;exitDy=0;" parent="WIyWlLk6GJQsqaUBKTNV-1" source="yk_ahU3Q7SBZZ4JdvM2L-14" target="yk_ahU3Q7SBZZ4JdvM2L-52" edge="1">
          <mxGeometry width="160" relative="1" as="geometry">
            <mxPoint x="390" y="620" as="sourcePoint" />
            <mxPoint x="550" y="620" as="targetPoint" />
            <Array as="points">
              <mxPoint x="105" y="839" />
            </Array>
          </mxGeometry>
        </mxCell>
        <mxCell id="yk_ahU3Q7SBZZ4JdvM2L-54" value="" style="endArrow=diamondThin;endFill=0;endSize=24;html=1;rounded=0;exitX=0.5;exitY=0;exitDx=0;exitDy=0;entryX=1;entryY=0.5;entryDx=0;entryDy=0;" parent="WIyWlLk6GJQsqaUBKTNV-1" source="yk_ahU3Q7SBZZ4JdvM2L-4" target="yk_ahU3Q7SBZZ4JdvM2L-6" edge="1">
          <mxGeometry width="160" relative="1" as="geometry">
            <mxPoint x="390" y="300" as="sourcePoint" />
            <mxPoint x="580" y="140" as="targetPoint" />
            <Array as="points">
              <mxPoint x="700" y="127" />
            </Array>
          </mxGeometry>
        </mxCell>
        <mxCell id="yk_ahU3Q7SBZZ4JdvM2L-55" value="" style="endArrow=diamondThin;endFill=0;endSize=24;html=1;rounded=0;entryX=0.492;entryY=0.999;entryDx=0;entryDy=0;entryPerimeter=0;exitX=0.5;exitY=0;exitDx=0;exitDy=0;" parent="WIyWlLk6GJQsqaUBKTNV-1" source="yk_ahU3Q7SBZZ4JdvM2L-17" target="yk_ahU3Q7SBZZ4JdvM2L-8" edge="1">
          <mxGeometry width="160" relative="1" as="geometry">
            <mxPoint x="390" y="300" as="sourcePoint" />
            <mxPoint x="550" y="300" as="targetPoint" />
            <Array as="points">
              <mxPoint x="480" y="310" />
              <mxPoint x="380" y="310" />
            </Array>
          </mxGeometry>
        </mxCell>
        <mxCell id="yk_ahU3Q7SBZZ4JdvM2L-56" value="" style="endArrow=diamondThin;endFill=1;endSize=24;html=1;rounded=0;entryX=0;entryY=0.5;entryDx=0;entryDy=0;exitX=0.5;exitY=0;exitDx=0;exitDy=0;" parent="WIyWlLk6GJQsqaUBKTNV-1" source="yk_ahU3Q7SBZZ4JdvM2L-9" target="yk_ahU3Q7SBZZ4JdvM2L-6" edge="1">
          <mxGeometry width="160" relative="1" as="geometry">
            <mxPoint x="300" y="340" as="sourcePoint" />
            <mxPoint x="170" y="160" as="targetPoint" />
            <Array as="points">
              <mxPoint x="300" y="280" />
              <mxPoint x="150" y="280" />
              <mxPoint x="150" y="127" />
            </Array>
          </mxGeometry>
        </mxCell>
        <mxCell id="yk_ahU3Q7SBZZ4JdvM2L-57" value="" style="endArrow=block;dashed=1;endFill=0;endSize=12;html=1;rounded=0;entryX=0.5;entryY=1;entryDx=0;entryDy=0;exitX=0.5;exitY=0;exitDx=0;exitDy=0;" parent="WIyWlLk6GJQsqaUBKTNV-1" source="yk_ahU3Q7SBZZ4JdvM2L-25" target="yk_ahU3Q7SBZZ4JdvM2L-4" edge="1">
          <mxGeometry width="160" relative="1" as="geometry">
            <mxPoint x="390" y="300" as="sourcePoint" />
            <mxPoint x="550" y="300" as="targetPoint" />
          </mxGeometry>
        </mxCell>
        <mxCell id="yk_ahU3Q7SBZZ4JdvM2L-58" value="" style="endArrow=block;dashed=1;endFill=0;endSize=12;html=1;rounded=0;entryX=1;entryY=0.5;entryDx=0;entryDy=0;exitX=0;exitY=0.5;exitDx=0;exitDy=0;" parent="WIyWlLk6GJQsqaUBKTNV-1" source="yk_ahU3Q7SBZZ4JdvM2L-10" target="yk_ahU3Q7SBZZ4JdvM2L-52" edge="1">
          <mxGeometry width="160" relative="1" as="geometry">
            <mxPoint x="140" y="600" as="sourcePoint" />
            <mxPoint x="550" y="510" as="targetPoint" />
            <Array as="points">
              <mxPoint x="140" y="603" />
              <mxPoint x="140" y="480" />
              <mxPoint x="260" y="480" />
              <mxPoint x="260" y="395" />
            </Array>
          </mxGeometry>
        </mxCell>
        <mxCell id="yk_ahU3Q7SBZZ4JdvM2L-59" value="" style="endArrow=open;endFill=1;endSize=12;html=1;rounded=0;" parent="WIyWlLk6GJQsqaUBKTNV-1" target="yk_ahU3Q7SBZZ4JdvM2L-3" edge="1">
          <mxGeometry width="160" relative="1" as="geometry">
            <mxPoint x="430" y="600" as="sourcePoint" />
            <mxPoint x="510" y="634.47" as="targetPoint" />
          </mxGeometry>
        </mxCell>
        <mxCell id="yk_ahU3Q7SBZZ4JdvM2L-66" value="" style="endArrow=none;html=1;edgeStyle=orthogonalEdgeStyle;rounded=0;exitX=0.494;exitY=0.993;exitDx=0;exitDy=0;exitPerimeter=0;" parent="WIyWlLk6GJQsqaUBKTNV-1" source="yk_ahU3Q7SBZZ4JdvM2L-20" edge="1">
          <mxGeometry relative="1" as="geometry">
            <mxPoint x="390" y="620" as="sourcePoint" />
            <mxPoint x="479" y="600" as="targetPoint" />
          </mxGeometry>
        </mxCell>
        <mxCell id="yk_ahU3Q7SBZZ4JdvM2L-69" value="" style="endArrow=none;html=1;edgeStyle=orthogonalEdgeStyle;rounded=0;exitX=1;exitY=0.5;exitDx=0;exitDy=0;" parent="WIyWlLk6GJQsqaUBKTNV-1" source="yk_ahU3Q7SBZZ4JdvM2L-14" edge="1">
          <mxGeometry relative="1" as="geometry">
            <mxPoint x="390" y="620" as="sourcePoint" />
            <mxPoint x="490" y="600" as="targetPoint" />
          </mxGeometry>
        </mxCell>
      </root>
    </mxGraphModel>
  </diagram>
</mxfile>
